[img]http://img17.imageshack.us/img17/7286/tintink.jpg[/img]
[code]
ID                               : 0
Format                           : MPEG-4 Visual
Format profile                   : Advanced Simple@L5
Format settings, BVOP            : 2
Format settings, QPel            : No
Format settings, GMC             : No warppoints
Format settings, Matrix          : Default (H.263)
Codec ID                         : XVID
Codec ID/Hint                    : XviD
Duration                         : 1h 39mn
Bit rate                         : 2 749 Kbps
Width                            : 1 280 pixels
Height                           : 552 pixels
Display aspect ratio             : 2.35:1
Frame rate                       : 25.000 fps
Color space                      : YUV
Chroma subsampling               : 4:2:0
Bit depth                        : 8 bits
Scan type                        : Progressive
Compression mode                 : Lossy
Bits/(Pixel*Frame)               : 0.156
Stream size                      : 1.91 GiB (95%)

Audio
ID                               : 1
Format                           : MPEG Audio
Format version                   : Version 1
Format profile                   : Layer 3
Mode                             : Joint stereo
Mode extension                   : MS Stereo
Codec ID                         : 55
Codec ID/Hint                    : MP3
Duration                         : 1h 39mn
Bit rate mode                    : Constant
Bit rate                         : 128 Kbps
Channel(s)                       : 2 channels
Sampling rate                    : 44.1 KHz
Compression mode                 : Lossy
Stream size                      : 91.2 MiB (4%)
Alignment                        : Split accross interleaves
Interleave, duration             : 40 ms (1.00 video frame)
Writing library                  : LAME3.98r
Encoding settings                : -m j -V 4 -q 2 -lowpass 17 -b 128



Release Notes:
The Adventures of Tin Tin 2011 720 CAM XviD - ILLUMINATI
So here we have it our 720p Cam release of Tin TIn.
Video is from the 720p files courtesy of TNZ so once
again guys a big thanks on another wonderful source 
top work guys  
Audio is from "case"    cheers bro for going the
xtra mile for the team and grabbing this nice cam audio
for us to use on this release  

Done our normal thing in regards to running filters
tweaking RGB and adjusting a few other things

Njoy 
[/code]
Screens:
[img]http://img267.imageshack.us/img267/4102/14355459.jpg[/img]
[img]http://img508.imageshack.us/img508/6370/53406910.jpg[/img]
[img]http://img210.imageshack.us/img210/4654/27599131.png[/img]
[img]http://img46.imageshack.us/img46/6227/60922698.png[/img]
[img]http://img545.imageshack.us/img545/9929/18399072.png[/img]